<svg width="360" height="140" viewBox="0 0 360 140" fill="none" xmlns="http://www.w3.org/2000/svg" role="img" aria-labelledby="title desc">
  <title id="title">Emma GaNun monogram logo</title>
  <desc id="desc">A black EG monogram framed in a rounded rectangle with a line-art rose accent on the left.</desc>
  <rect x="78" y="16" width="268" height="108" rx="14" stroke="#000" stroke-width="6"/>
  <path d="M108 44H186C186 54 178 62 168 62H108V44Z" fill="#000"/>
  <rect x="108" y="70" width="60" height="20" fill="#000"/>
  <path d="M108 98H188C188 108 196 116 206 116H108V98Z" fill="#000"/>
  <path d="M194 44H330V102C330 111 323 118 314 118H242C215 118 194 97 194 70V44Z" fill="#000"/>
  <path d="M225 62H319V78H247V90H299C298 101 288 108 273 108H257C239 108 225 94 225 76V62Z" fill="#F7F7F6"/>
  <g stroke="#000" stroke-width="2.2" stroke-linecap="round" stroke-linejoin="round" fill="none">
    <path d="M24 80C18 74 18 64 27 58C35 52 45 56 50 63"/>
    <path d="M44 84C34 87 23 83 21 73C19 63 27 55 37 55C47 55 54 64 52 74"/>
    <path d="M36 64C39 54 52 52 59 60C66 68 62 79 53 82"/>
    <path d="M50 65C56 57 68 58 72 67C76 77 69 87 60 88"/>
    <path d="M40 74C48 68 60 69 66 77C72 85 67 96 57 98C47 100 39 94 38 86"/>
    <path d="M40 98C53 96 64 100 67 109"/>
    <path d="M66 109C67 116 65 122 61 128"/>
    <path d="M56 110C52 118 47 125 42 132"/>
    <path d="M53 119C45 116 38 117 34 122"/>
    <path d="M63 97C70 89 80 88 88 92"/>
  </g>
</svg>
